<svg xmlns="http://www.w3.org/2000/svg" viewBox="0 0 128 128">
  <rect x="6" y="6" width="116" height="116" rx="27" fill="#eff6ff" stroke="#bfdbfe" stroke-width="4"/>
  <rect x="17" y="27" width="94" height="78" rx="10" fill="#ffffff"/>
  <path d="M27 27h60l24 24v8H17V37c0-5.52 4.48-10 10-10Z" fill="#163b72"/>
  <circle cx="31" cy="42.5" r="3.5" fill="#ffffff"/>
  <circle cx="43" cy="42.5" r="3.5" fill="#ffffff" opacity=".86"/>
  <circle cx="55" cy="42.5" r="3.5" fill="#ffffff" opacity=".72"/>
  <path d="M87 27v14c0 5.52 4.48 10 10 10h14L87 27Z" fill="#60a5fa"/>
  <path d="M34 77h22M39 87h13" fill="none" stroke="#93c5fd" stroke-width="5" stroke-linecap="round"/>
  <path d="m61 65 7 34 8-11 12 15 8-6-12-15 13-5-36-12Z" fill="#2563eb" stroke="#ffffff" stroke-width="3" stroke-linejoin="round"/>
</svg>
